HIERARCHY
ROOT Pelvis
{
    OFFSET 0.000000 0.000000 0.000000
    CHANNELS 6 Xposition Yposition Zposition Zrotation Yrotation Xrotation
    JOINT Spine1(L5~L4)
    {
        OFFSET 0.000000 1.035090 -0.000046
        CHANNELS 3 Zrotation Yrotation Xrotation
        JOINT Spine2(L3~L1)
        {
            OFFSET 0.000000 1.146240 0.000051
            CHANNELS 3 Zrotation Yrotation Xrotation
            JOINT Thorax1(T12~T9)
            {
                OFFSET 0.000000 1.046466 -0.000043
                CHANNELS 3 Zrotation Yrotation Xrotation
                JOINT Thorax2(T8~T1)
                {
                    OFFSET 0.000000 1.045296 -0.000043
                    CHANNELS 3 Zrotation Yrotation Xrotation
                    JOINT Neck(C7~C1)
                    {
                        OFFSET 0.000000 1.463490 0.000000
                        CHANNELS 3 Zrotation Yrotation Xrotation
                        JOINT Head
                        {
                            OFFSET 0.000000 0.973062 0.000086
                            CHANNELS 3 Zrotation Yrotation Xrotation
                            End Site
                            {
                                OFFSET -0.000000 1.805411 0.106200
                            }
                        }
                    }
                    JOINT RightShoulder
                    {
                        OFFSET -0.317508 0.820128 0.000000
                        CHANNELS 3 Zrotation Yrotation Xrotation
                        JOINT RightUpperArm
                        {
                            OFFSET -1.475244 -0.000000 0.000000
                            CHANNELS 3 Zrotation Yrotation Xrotation
                            JOINT RightForearm
                            {
                                OFFSET 0.000002 -3.152141 0.000000
                                CHANNELS 3 Zrotation Yrotation Xrotation
                                JOINT RightHand
                                {
                                    OFFSET 0.000002 -2.577779 0.000000
                                    CHANNELS 3 Zrotation Yrotation Xrotation
                                    End Site
                                    {
                                        OFFSET 0.000000 -1.927547 0.000000
                                    }
                                }
                            }
                        }
                    }
                    JOINT LeftShoulder
                    {
                        OFFSET 0.317508 0.820128 0.000000
                        CHANNELS 3 Zrotation Yrotation Xrotation
                        JOINT LeftUpperArm
                        {
                            OFFSET 1.475244 -0.000000 0.000000
                            CHANNELS 3 Zrotation Yrotation Xrotation
                            JOINT LeftForearm
                            {
                                OFFSET 0.000002 -3.152141 0.000000
                                CHANNELS 3 Zrotation Yrotation Xrotation
                                JOINT LeftHand
                                {
                                    OFFSET 0.000002 -2.577779 0.000000
                                    CHANNELS 3 Zrotation Yrotation Xrotation
                                    End Site
                                    {
                                        OFFSET 0.000000 -1.927547 0.000000
                                    }
                                }
                            }
                        }
                    }
                }
            }
        }
    }
    JOINT RightUpperLeg
    {
        OFFSET -0.844200 -0.000000 0.000000
        CHANNELS 3 Zrotation Yrotation Xrotation
        JOINT RightLowerLeg
        {
            OFFSET 0.000003 -4.385015 0.000084
            CHANNELS 3 Zrotation Yrotation Xrotation
            JOINT RightFoot
            {
                OFFSET 0.000003 -4.285727 0.000138
                CHANNELS 3 Zrotation Yrotation Xrotation
                JOINT RightToe
                {
                    OFFSET 0.000000 -0.699338 1.584412
                    CHANNELS 3 Zrotation Yrotation Xrotation
                    End Site
                    {
                        OFFSET -0.000000 -0.166200 0.681375
                    }
                }
            }
        }
    }
    JOINT LeftUpperLeg
    {
        OFFSET 0.844200 -0.000000 0.000000
        CHANNELS 3 Zrotation Yrotation Xrotation
        JOINT LeftLowerLeg
        {
            OFFSET 0.000003 -4.385015 0.000084
            CHANNELS 3 Zrotation Yrotation Xrotation
            JOINT LeftFoot
            {
                OFFSET 0.000003 -4.285727 0.000138
                CHANNELS 3 Zrotation Yrotation Xrotation
                JOINT LeftToe
                {
                    OFFSET 0.000000 -0.699338 1.584412
                    CHANNELS 3 Zrotation Yrotation Xrotation
                    End Site
                    {
                        OFFSET -0.000000 -0.166200 0.681375
                    }
                }
            }
        }
    }
}
MOTION
Frames: 8
Frame Time: 0.02
3.332546 9.170076 -2.104988 3.083800 -84.231972 -16.977213 -1.712361 -5.440740 35.038422 -0.000005 0.000002 -12.161666 0.000002 -0.000002 -0.005904 0.000001 -0.000005 5.829914 0.000001 0.000006 12.605156 -3.192087 0.600045 -14.604659 -1.391693 -6.045097 -5.287228 -23.393549 -13.835207 21.641399 54.534203 33.465446 -44.899620 2.010629 2.172980 -8.414713 1.487801 -4.678138 -2.806345 23.135525 -8.048962 -4.497782 -32.615936 -34.171719 -75.618210 -1.963925 -11.562116 -0.398873 3.499806 -10.419156 -12.830979 -23.539314 -3.378024 69.611038 1.671231 9.045026 -2.975050 0.000006 -0.000003 -0.000293 1.353290 16.172543 6.898081 2.290684 -8.053546 38.286690 2.687352 -9.060261 -21.755100 0.000005 0.000002 -0.000297
3.006633 9.280312 -2.111112 1.528082 -84.561264 -14.702190 -1.688175 -6.598872 34.357071 -0.000004 0.000000 -12.161668 0.000001 -0.000003 -0.005906 0.000001 -0.000002 5.829914 0.000001 -0.000002 12.605161 -3.756727 1.234945 -14.757918 -1.407802 -6.452045 -5.221149 -24.257877 -13.533978 22.312696 54.421356 34.267666 -45.267822 2.769382 2.753055 -8.356801 1.771065 -4.900842 -3.091058 23.281847 -7.170139 -5.482563 -33.119007 -34.643471 -76.451347 -2.153013 -11.145071 -0.733660 4.259120 -9.215590 -14.308519 -21.975136 -5.077280 64.183517 1.730237 7.421778 -4.531178 0.000007 -0.000000 -0.000288 2.380989 16.144352 9.061273 2.589028 -7.201102 36.135838 0.899803 -10.528318 -17.939970 -0.000001 0.000003 -0.000292
2.670729 9.396703 -2.121870 -1.240596 -85.324127 -11.310212 -1.512757 -7.291854 33.653057 -0.000003 0.000005 -12.161667 0.000001 -0.000008 -0.005903 -0.000001 0.000004 5.829915 0.000002 0.000001 12.605157 -4.213029 1.856998 -14.751605 -1.425023 -6.689365 -5.019674 -24.878572 -13.237436 22.724688 53.744907 35.177170 -45.944351 3.176116 3.474391 -8.171659 2.049030 -5.046106 -3.410709 22.929701 -5.947815 -5.892145 -33.665886 -35.042423 -77.001251 -2.504692 -10.884714 -0.902978 5.015346 -8.075686 -14.659789 -20.114937 -6.967528 56.897163 1.722501 5.696594 -5.946383 -0.000001 0.000007 -0.000300 3.576885 16.357248 11.207344 2.961542 -6.234171 34.111465 -1.265121 -11.952740 -13.101811 -0.000003 0.000006 -0.000295
2.327486 9.504086 -2.134886 -5.888697 -86.397499 -5.746612 -1.130664 -7.525191 32.506664 -0.000002 0.000002 -12.161668 0.000002 -0.000000 -0.005905 0.000004 0.000000 5.829916 -0.000002 -0.000005 12.605154 -4.654809 2.340850 -14.578688 -1.481608 -6.820165 -4.645499 -25.272203 -13.027126 22.912003 52.845680 35.998024 -46.735741 3.260781 4.047482 -7.873045 2.269407 -5.164503 -3.690983 22.267042 -4.995067 -5.791661 -33.593403 -35.165375 -77.995422 -2.632739 -10.770105 -1.007998 5.791895 -7.036449 -14.350266 -17.476994 -8.830287 47.802696 1.406454 4.190796 -7.057325 0.000007 -0.000001 -0.000290 4.534596 16.645132 12.770939 3.403333 -5.386999 32.411217 -3.770153 -12.951277 -7.490357 0.000007 0.000006 -0.000291
1.977061 9.591047 -2.145992 -11.851030 -87.386627 1.609238 -0.678159 -7.565945 30.752708 -0.000005 0.000002 -12.161669 0.000004 -0.000002 -0.005902 -0.000001 0.000001 5.829916 0.000001 -0.000005 12.605158 -5.104308 2.630747 -14.291266 -1.500846 -6.934267 -4.242770 -25.541321 -12.933850 23.021973 52.155140 36.561649 -47.295483 3.259725 4.251613 -7.565124 2.465046 -5.335118 -3.869545 21.442333 -4.366531 -5.400423 -32.973980 -35.095974 -79.411369 -2.375616 -10.696159 -1.204698 7.035115 -7.417221 -13.501665 -14.293170 -8.566849 37.071232 1.732759 3.475858 -8.995212 -0.000008 0.000003 -0.000288 4.721221 16.601749 13.474838 4.148032 -4.593459 30.994860 -6.388874 -13.438203 -1.178683 -0.000003 0.000003 -0.000294
1.618451 9.653418 -2.151111 -13.176132 -88.260437 4.261065 -0.409847 -7.437502 29.063826 -0.000003 0.000008 -12.161666 0.000004 -0.000005 -0.005905 -0.000001 -0.000003 5.829916 0.000000 -0.000001 12.605156 -5.582755 2.733595 -14.103047 -1.480285 -7.062135 -3.948200 -25.733492 -12.954018 23.110575 52.086620 36.697094 -47.322830 3.360192 4.135434 -7.397779 2.570719 -5.605195 -4.070735 20.500938 -3.854023 -4.792771 -32.250404 -34.985607 -80.863823 -2.028498 -10.777834 -1.434786 7.613755 -9.115100 -12.073460 -11.018668 -6.452224 26.502953 2.922919 4.896168 -11.397559 -0.000002 -0.000003 -0.000295 4.050640 15.870025 13.695538 5.083342 -3.458779 30.298893 -8.884587 -13.322201 5.117700 0.000005 -0.000001 -0.000301
1.258845 9.680044 -2.148227 14.515989 -89.161865 -22.580957 -0.512067 -6.878750 28.033022 -0.000003 -0.000001 -12.161671 0.000004 -0.000000 -0.005904 -0.000001 0.000002 5.829915 -0.000001 -0.000001 12.605157 -6.036069 2.615143 -14.208673 -1.474524 -7.265362 -3.873322 -25.755772 -13.144861 23.116360 52.564762 36.510490 -46.827679 3.357353 3.867859 -7.306547 2.562002 -6.007325 -4.378438 19.528219 -3.188390 -4.078795 -31.655445 -35.028297 -82.137009 -1.890425 -10.923692 -1.616826 5.436686 -8.812999 -11.278319 -7.327458 -6.201437 19.258293 5.014056 7.901464 -12.625010 -0.000004 -0.000004 -0.000291 3.040128 14.682081 13.771732 5.828761 -1.787373 30.922752 -11.036683 -12.980476 10.556026 -0.000003 0.000007 -0.000295
0.901007 9.657673 -2.142869 86.077965 -88.626411 -93.899734 -1.223732 -6.249937 27.706327 -0.000003 0.000008 -12.161667 0.000001 -0.000010 -0.005902 0.000001 -0.000001 5.829912 0.000001 0.000000 12.605164 -6.410021 2.508264 -14.391334 -1.522193 -7.313808 -3.891121 -25.496008 -13.352969 22.988247 53.027046 36.176437 -46.305710 3.212180 3.532864 -7.286705 2.447462 -6.220477 -4.564846 18.593065 -2.435247 -3.432783 -31.297060 -35.233414 -83.148911 -1.963326 -11.079166 -1.775425 3.701755 -9.798307 -10.617079 -5.154987 -4.791125 15.034986 7.172002 10.048788 -13.297003 0.000003 0.000001 -0.000296 1.876309 13.842175 13.682307 6.735875 -0.488158 33.417328 -13.143338 -12.855179 14.959983 -0.000007 0.000004 -0.000294
